<?xml version="1.0" standalone="no"?>
<!DOCTYPE svg PUBLIC "-//W3C//DTD SVG 20010904//EN"
 "http://www.w3.org/TR/2001/REC-SVG-20010904/DTD/svg10.dtd">
<svg version="1.0" xmlns="http://www.w3.org/2000/svg"
 width="512.000000pt" height="512.000000pt" viewBox="0 0 512.000000 512.000000"
 preserveAspectRatio="xMidYMid meet">
<metadata>
Created by potrace 1.11, written by Peter Selinger 2001-2013
</metadata>
<g transform="translate(0.000000,512.000000) scale(0.100000,-0.100000)"
fill="#000000" stroke="none">
<path d="M2357 2568 c-285 -761 -517 -1386 -517 -1391 0 -4 72 -6 161 -5 l161
3 519 1384 c285 761 519 1386 519 1388 0 1 -73 3 -163 3 l-163 0 -517 -1382z"/>
<path d="M775 3220 l-770 -418 -3 -239 -2 -238 771 -420 c424 -231 777 -421
785 -423 12 -3 14 39 14 267 l0 271 -547 274 -548 274 185 89 c102 49 348 167
548 263 l362 174 0 273 c0 212 -3 273 -12 272 -7 0 -359 -189 -783 -419z"/>
<path d="M3550 3372 l0 -271 343 -168 c188 -92 434 -213 546 -268 l205 -101
-547 -272 -547 -271 0 -271 c0 -230 2 -271 14 -268 8 2 361 192 785 423 l771
420 -3 238 -2 238 -765 416 c-421 228 -773 418 -782 420 -17 5 -18 -12 -18
-265z"/>
</g>
</svg>
