<?xml version="1.0"?>
<svg xmlns="http://www.w3.org/2000/svg" xmlns:xlink="http://www.w3.org/1999/xlink" version="1.1" id="Capa_1" x="0px" y="0px" viewBox="0 0 512 512" style="enable-background:new 0 0 512 512;" xml:space="preserve" width="512px" height="512px" class=""><g><g>
	<g>
		<path d="M309.561,324.814c-1.402-0.417-2.876-0.51-4.315-0.299c-0.168-0.008-0.337-0.012-0.505-0.019    c12.981-12.682,21.061-30.361,21.061-49.899V175c0-5.522-4.478-10-10-10h-74.075c-30.617,0-55.526,24.909-55.526,55.526v54.07    c0,19.538,8.08,37.217,21.061,49.899c-0.168,0.007-0.337,0.011-0.505,0.019c-1.438-0.21-2.913-0.118-4.315,0.299    c-51.696,4.641-92.352,48.2-92.352,101.084V475c0,5.522,4.478,10,10,10h271.824c5.522,0,10-4.478,10-10v-49.102    C401.912,373.015,361.257,329.455,309.561,324.814z M206.199,234.533v-14.007h0c0-19.589,15.938-35.526,35.526-35.526H305.8    v26.761c0,13.522-11.001,24.523-24.523,24.523h-75.078V234.533z M206.199,274.597v-18.313h75.078    c9.057,0,17.485-2.725,24.523-7.388v25.7c0,27.46-22.341,49.801-49.801,49.801C228.539,324.397,206.199,302.057,206.199,274.597z     M282.558,344.397L256,370.955l-26.558-26.558H282.558z M381.912,465H130.088v-28.78h81.604c5.522,0,10-4.478,10-10    c0-5.522-4.478-10-10-10h-81.009c4.42-37.167,33.939-66.726,71.087-71.21l47.159,47.159c1.953,1.952,4.512,2.929,7.071,2.929    s5.118-0.977,7.071-2.929l47.159-47.159c40.323,4.867,71.682,39.274,71.682,80.888V465z" data-original="#000000" class="active-path" data-old_color="#000000" fill="#444444"/>
	</g>
</g><g>
	<g>
		<path d="M263.069,419.15c-1.859-1.86-4.439-2.93-7.069-2.93s-5.21,1.07-7.07,2.93s-2.93,4.44-2.93,7.07s1.069,5.21,2.93,7.07    c1.86,1.859,4.44,2.93,7.07,2.93s5.21-1.07,7.069-2.93c1.86-1.86,2.931-4.44,2.931-7.07S264.93,421.01,263.069,419.15z" data-original="#000000" class="active-path" data-old_color="#000000" fill="#444444"/>
	</g>
</g><g>
	<g>
		<path d="M256.127,27c-20.953,0-38,17.047-38,38c0,17.492,11.884,32.253,28,36.655v24.423c0,5.522,4.478,10,10,10s10-4.478,10-10    v-24.423c16.116-4.402,28-19.163,28-36.655C294.127,44.047,277.08,27,256.127,27z M256.127,83c-9.925,0-18-8.075-18-18    s8.075-18,18-18s18,8.075,18,18S266.052,83,256.127,83z" data-original="#000000" class="active-path" data-old_color="#000000" fill="#444444"/>
	</g>
</g><g>
	<g>
		<path d="M456.883,105.001c-7.178-7.177-16.72-11.13-26.87-11.13c-10.15,0-19.692,3.953-26.87,11.131    c-12.368,12.369-14.402,31.209-6.12,45.718l-17.27,17.27c-3.905,3.905-3.905,10.237,0,14.143c1.954,1.951,4.513,2.928,7.072,2.928    c2.56,0,5.118-0.977,7.071-2.929l17.262-17.262c5.68,3.257,12.131,5.002,18.855,5.002c10.15,0,19.692-3.953,26.869-11.13    c7.179-7.177,11.132-16.72,11.132-26.87C468.014,121.722,464.061,112.179,456.883,105.001z M442.742,144.601    c-7.018,7.018-18.438,7.018-25.455,0c-7.019-7.019-7.019-18.439-0.001-25.457c3.509-3.51,8.118-5.264,12.728-5.264    s9.219,1.754,12.728,5.264c3.4,3.4,5.273,7.92,5.273,12.729C448.015,136.681,446.142,141.201,442.742,144.601z" data-original="#000000" class="active-path" data-old_color="#000000" fill="#444444"/>
	</g>
</g><g>
	<g>
		<path d="M474,267.833c-17.492,0-32.253,11.884-36.655,28h-24.423c-5.522,0-10,4.478-10,10c0,5.522,4.478,10,10,10h24.423    c4.402,16.116,19.163,28,36.655,28c20.953,0,38-17.047,38-38S494.953,267.833,474,267.833z M474,323.833c-9.925,0-18-8.075-18-18    s8.075-18,18-18s18,8.075,18,18S483.925,323.833,474,323.833z" data-original="#000000" class="active-path" data-old_color="#000000" fill="#444444"/>
	</g>
</g><g>
	<g>
		<path d="M382.069,298.76c-1.859-1.86-4.439-2.93-7.069-2.93s-5.21,1.069-7.07,2.93c-1.86,1.861-2.93,4.44-2.93,7.07    c0,2.64,1.069,5.21,2.93,7.069c1.86,1.871,4.44,2.931,7.07,2.931s5.21-1.061,7.069-2.931c1.86-1.859,2.931-4.439,2.931-7.069    S383.93,300.63,382.069,298.76z" data-original="#000000" class="active-path" data-old_color="#000000" fill="#444444"/>
	</g>
</g><g>
	<g>
		<path d="M99.078,295.579H74.655c-4.402-16.116-19.163-28-36.655-28c-20.953,0-38,17.047-38,38s17.047,38,38,38    c17.492,0,32.253-11.884,36.655-28h24.423c5.522,0,10-4.478,10-10C109.078,300.057,104.601,295.579,99.078,295.579z M38,323.579    c-9.925,0-18-8.075-18-18s8.075-18,18-18s18,8.075,18,18S47.925,323.579,38,323.579z" data-original="#000000" class="active-path" data-old_color="#000000" fill="#444444"/>
	</g>
</g><g>
	<g>
		<path d="M131.641,167.025l-17.262-17.261c3.258-5.68,5.002-12.132,5.002-18.856c0-10.15-3.953-19.693-11.131-26.871    c-7.178-7.177-16.72-11.13-26.87-11.13s-19.692,3.953-26.87,11.131c-14.815,14.816-14.815,38.924,0,53.74    c7.178,7.177,16.72,11.13,26.871,11.13c6.724,0,13.176-1.745,18.856-5.002l17.262,17.262c1.953,1.952,4.512,2.929,7.071,2.929    s5.118-0.977,7.071-2.929C135.546,177.263,135.546,170.931,131.641,167.025z M94.114,143.632    c-0.001,0.002-0.003,0.003-0.005,0.005c-7.018,7.02-18.438,7.02-25.455,0c-7.019-7.019-7.019-18.439-0.001-25.457    c3.509-3.509,8.118-5.264,12.728-5.264c4.61,0,9.219,1.755,12.728,5.264c3.4,3.4,5.273,7.92,5.273,12.729    C99.382,135.714,97.51,140.233,94.114,143.632z" data-original="#000000" class="active-path" data-old_color="#000000" fill="#444444"/>
	</g>
</g></g> </svg>
