<svg xmlns="http://www.w3.org/2000/svg" viewBox="0 0 314.84 444.39"><defs><style>.cls-1{fill:#444545;}.cls-2{fill:#ebebeb;}.cls-3{fill:#fff;}</style></defs><title>css</title><g id="Layer_2" data-name="Layer 2"><g id="Layer_1-2" data-name="Layer 1"><polygon class="cls-1" points="157.23 444.39 28.65 408.7 0 87.33 314.84 87.33 286.15 408.65 157.23 444.39 157.23 444.39 157.23 444.39"/><polygon class="cls-1" points="261.6 388.19 286.11 113.61 157.42 113.61 157.42 417.07 261.6 388.19 261.6 388.19 261.6 388.19"/><path class="cls-2" d="M157.42,335.16l-.17,0-43.9-11.85-2.81-31.44H71l5.52,61.89,80.74,22.41.18-.05v-41ZM58.59,153l3.58,39.41h95.25V153Zm7.09,79.77,3.54,39.41h88.2V232.8Z"/><path class="cls-1" d="M188.66,0H236.4V17.36H208.63v3.47H236.4V60.76H188.66V42.53h27.78V39.06H188.67V0ZM131.38,0h47.74V17.36H151.34v3.47h27.78V60.76H131.38V42.53h27.78V39.06H131.38V0ZM74.1,0h47.73V20H94.06v20h27.77v20H74.1V0Z"/><polygon class="cls-3" points="248.9 232.8 256.01 153.03 157.28 153.03 157.28 192.44 212.82 192.44 209.24 232.8 157.28 232.8 157.28 272.21 205.82 272.21 201.24 323.33 157.28 335.2 157.28 376.2 238.08 353.81 238.68 347.15 247.94 243.38 248.9 232.8 248.9 232.8 248.9 232.8"/></g></g></svg>