<svg xmlns="http://www.w3.org/2000/svg" viewBox="0 0 511.72 77.98"><defs><style>.cls-1{fill:#444545;}</style></defs><title>electronjs</title><g id="Layer_2" data-name="Layer 2"><g id="Layer_1-2" data-name="Layer 1"><path class="cls-1" d="M107.67,62.65h28.17a1.48,1.48,0,0,0,0-3H109.27V42.37h23.49a1.48,1.48,0,1,0,0-3H109.27v-17h26.27a1.48,1.48,0,1,0,0-3H107.67a1.63,1.63,0,0,0-1.6,1.61V61a1.63,1.63,0,0,0,1.6,1.61ZM156.88,61a1.64,1.64,0,0,0,1.61,1.61H184.2a1.48,1.48,0,0,0,0-3H160.09V20.85a1.61,1.61,0,0,0-3.21,0V61Zm49.28,1.61h28.17a1.48,1.48,0,0,0,0-3H207.76V42.37h23.49a1.48,1.48,0,0,0,0-3H207.76v-17H234a1.48,1.48,0,0,0,0-3H206.16a1.63,1.63,0,0,0-1.6,1.61V61a1.63,1.63,0,0,0,1.6,1.61Zm68.76.74c7.21,0,12-2.65,16.33-6.72a1.57,1.57,0,0,0,.5-1.11A1.61,1.61,0,0,0,290.2,54a1.52,1.52,0,0,0-1.1.49c-4.07,3.88-8.2,6-14.06,6-10.3,0-18.25-8.51-18.25-19.42V41c0-10.85,7.83-19.3,18.19-19.3a19.27,19.27,0,0,1,13.75,5.61,1.6,1.6,0,0,0,1.11.43,1.69,1.69,0,0,0,1.66-1.6,1.83,1.83,0,0,0-.62-1.29c-4.19-3.58-8.69-6.05-15.84-6.05-12.45,0-21.58,10.11-21.58,22.32v.12c0,12.4,9.13,22.2,21.46,22.2Zm47.42-2.1a1.61,1.61,0,0,0,3.21,0V22.45h13.81a1.48,1.48,0,0,0,0-3H308.53a1.48,1.48,0,1,0,0,3h13.81V61.29Zm37.5,0a1.61,1.61,0,0,0,3.21,0V44.77h14.12L390.42,62a1.78,1.78,0,0,0,1.42.86,1.74,1.74,0,0,0,1.66-1.66,1.77,1.77,0,0,0-.49-1.11L380.74,44.21c7.28-1,12.64-5.11,12.64-12.33v-.12a11.34,11.34,0,0,0-3.27-8c-2.59-2.59-6.84-4.26-12.14-4.26H361.44a1.63,1.63,0,0,0-1.6,1.61V61.29Zm3.21-19.42V22.45h14.73c7.83,0,12.39,3.64,12.39,9.43V32c0,6.22-5.36,9.86-12.57,9.86Zm70.6,21.52c13.07,0,21.77-10.54,21.77-22.32V41c0-11.78-8.57-22.2-21.64-22.2S412,29.3,412,41.07v.12c0,11.78,8.57,22.2,21.64,22.2Zm.13-2.9c-10.67,0-18.44-8.75-18.44-19.42V41c0-10.67,7.65-19.3,18.31-19.3s18.44,8.76,18.44,19.42v.12c0,10.67-7.65,19.3-18.31,19.3Zm42.06.86a1.54,1.54,0,1,0,3.08,0V24.18l29.65,37.6a2.2,2.2,0,0,0,1.61,1h.24a1.32,1.32,0,0,0,1.3-1.35V20.79a1.54,1.54,0,0,0-3.08,0V57.16l-29.1-36.93a2,2,0,0,0-1.61-.92h-.49a1.63,1.63,0,0,0-1.6,1.6V61.35Z"/><path class="cls-1" d="M25.38,16.76c-10.19-1.86-18.25.09-21.46,5.65-2.4,4.15-1.71,9.65,1.66,15.53a1,1,0,1,0,1.81-1c-3-5.3-3.62-10-1.66-13.45C8.4,18.83,15.58,17.1,25,18.82a1,1,0,0,0,.38-2.06ZM10.88,45.09a65.13,65.13,0,0,0,15.58,12.3C41.24,65.93,57,68.21,64.73,62.92a1,1,0,1,0-1.18-1.73c-6.94,4.73-21.88,2.57-36-5.61A63.4,63.4,0,0,1,12.43,43.69,1,1,0,0,0,11,43.62a1,1,0,0,0-.07,1.47Z"/><path class="cls-1" d="M62.26,43.82c6.67-7.88,9-15.81,5.79-21.36-2.35-4.08-7.34-6.24-14-6.33a1.06,1.06,0,0,0-1.06,1,1,1,0,0,0,1,1c6,.08,10.25,1.94,12.18,5.29,2.67,4.61.59,11.68-5.58,19a1,1,0,0,0,1.6,1.35ZM45.11,17.11a65.26,65.26,0,0,0-18.62,7.38C11.23,33.3,1.28,46.29,2.66,55.71a1,1,0,0,0,2.07-.31C3.5,47,12.93,34.73,27.53,26.3a63.19,63.19,0,0,1,18-7.15,1,1,0,1,0-.44-2Z"/><path class="cls-1" d="M20.39,62.24C23.88,72,29.59,78,36,78c4.68,0,9-3.19,12.39-8.81a1,1,0,1,0-1.79-1.08c-3,5-6.76,7.8-10.6,7.8-5.33,0-10.42-5.35-13.64-14.36a1,1,0,0,0-2,.71Zm31.86-1.91A65.47,65.47,0,0,0,55,41C55,23.66,49,8.73,40.34,4.9a1,1,0,0,0-.85,1.91C47.19,10.23,52.94,24.39,52.94,41a63.59,63.59,0,0,1-2.68,18.74,1,1,0,1,0,2,.62Z"/><path class="cls-1" d="M71.93,59.31a5,5,0,1,0-5,5,5,5,0,0,0,5-5Zm-2.09,0a2.91,2.91,0,1,1-2.91-2.91,2.91,2.91,0,0,1,2.91,2.91Z"/><path class="cls-1" d="M5,64.31a5,5,0,1,0-5-5,5,5,0,0,0,5,5Zm0-2.09a2.91,2.91,0,1,1,2.91-2.91A2.91,2.91,0,0,1,5,62.22Z"/><path class="cls-1" d="M36,10a5,5,0,1,0-5-5,5,5,0,0,0,5,5Zm0-2.09A2.91,2.91,0,1,1,38.91,5,2.91,2.91,0,0,1,36,7.91Z"/><path class="cls-1" d="M36.77,44.5a3.62,3.62,0,1,1,2.77-4.3,3.62,3.62,0,0,1-2.77,4.3Z"/></g></g></svg>