<svg xmlns="http://www.w3.org/2000/svg" viewBox="0 0 256 256"><defs><style>.cls-1{fill:#444545;}</style></defs><title>git</title><g id="Layer_2" data-name="Layer 2"><g id="Layer_1-2" data-name="Layer 1"><path class="cls-1" d="M251.17,116.59,139.4,4.83a16.49,16.49,0,0,0-23.32,0L92.87,28l29.45,29.44a19.57,19.57,0,0,1,24.79,25l28.38,28.38a19.59,19.59,0,1,1-11.75,11.06L137.27,95.41v69.64a19.94,19.94,0,0,1,5.19,3.71,19.6,19.6,0,1,1-21.32-4.28V94.2a19.4,19.4,0,0,1-6.42-4.29,19.6,19.6,0,0,1-4.23-21.44l-29-29L4.83,116.08a16.49,16.49,0,0,0,0,23.32L116.6,251.17a16.51,16.51,0,0,0,23.32,0L251.17,139.92a16.5,16.5,0,0,0,0-23.33"/></g></g></svg>