<svg xmlns="http://www.w3.org/2000/svg" viewBox="0 0 256 287.64"><defs><style>.cls-1{fill:#444545;}</style></defs><title>graphql</title><g id="Layer_2" data-name="Layer 2"><g id="Layer_1-2" data-name="Layer 1"><path class="cls-1" d="M243.1,180.7a25.52,25.52,0,0,0-6.76-2.71V109.67a25.65,25.65,0,1,0-18.8-47.16,25.91,25.91,0,0,0-5.82,4.6L152.58,33a25.64,25.64,0,1,0-49.17,0L44.25,67.08a25.65,25.65,0,1,0-24.59,42.59V178a25.65,25.65,0,1,0,18.87,47.14,25.9,25.9,0,0,0,5.74-4.51l59.13,34.14a25.64,25.64,0,1,0,48.94-.83L211.13,220a25.21,25.21,0,0,0,6.34,5.14A25.65,25.65,0,1,0,243.1,180.7ZM32.86,178.3l-1-.28V109.61A25.61,25.61,0,0,0,50.29,77.68l59.27-34.22c.24.24.48.49.73.72ZM147,244.74a25.66,25.66,0,0,0-37.43-.52L50.34,210c.1-.33.18-.66.27-1H205.39c.14.56.29,1.12.47,1.68Zm61.1-54.64a25.69,25.69,0,0,0-2.7,6.76H50.64a25.49,25.49,0,0,0-7.21-12.49l77.43-134.1a25.94,25.94,0,0,0,14.3,0l77.42,134.08A25.48,25.48,0,0,0,208.06,190.1ZM224.15,178l-1,.26L145.73,44.17c.23-.22.46-.45.68-.69L205.7,77.72a25.61,25.61,0,0,0,18.45,31.89Z"/></g></g></svg>