<svg xmlns="http://www.w3.org/2000/svg" viewBox="0 0 362.73 512"><defs><style>.cls-1{fill:#444545;}.cls-2{fill:#ebebeb;}.cls-3{fill:#fff;}</style></defs><title>html</title><g id="Layer_2" data-name="Layer 2"><g id="Layer_1-2" data-name="Layer 1"><polygon class="cls-1" points="33.01 470.88 0 100.62 362.73 100.62 329.69 470.82 181.15 512 33.01 470.88"/><polygon class="cls-1" points="181.37 480.52 301.4 447.25 329.64 130.89 181.37 130.89 181.37 480.52"/><polygon class="cls-2" points="181.37 268.22 121.28 268.22 117.13 221.72 181.37 221.72 181.37 176.31 181.21 176.31 67.5 176.31 68.59 188.49 79.75 313.63 181.37 313.63 181.37 268.22"/><polygon class="cls-2" points="181.37 386.15 181.17 386.21 130.59 372.55 127.36 336.33 102.79 336.33 81.78 336.33 88.14 407.63 181.16 433.46 181.37 433.4 181.37 386.15"/><path class="cls-1" d="M33.75,0H56.83V22.8H77.94V0H101V69H77.94V45.92H56.83V69H33.75V0Z"/><path class="cls-1" d="M131.36,22.9H111.05V0h63.72V22.9H154.44V69H131.36V22.9Z"/><path class="cls-1" d="M184.88,0h24.06l14.8,24.26L238.53,0H262.6V69h-23V34.82L223.74,59.37h-.39L207.46,34.82V69H184.88Z"/><path class="cls-1" d="M274.09,0h23.08V46.22h32.45V69H274.09Z"/><polygon class="cls-3" points="181.21 268.22 181.21 313.63 237.13 313.63 231.86 372.52 181.21 386.19 181.21 433.44 274.3 407.63 274.99 399.96 285.66 280.41 286.77 268.22 274.53 268.22 181.21 268.22"/><polygon class="cls-3" points="181.21 176.31 181.21 204.51 181.21 221.6 181.21 221.72 290.75 221.72 290.75 221.72 290.9 221.72 291.81 211.51 293.88 188.49 294.96 176.31 181.21 176.31"/></g></g></svg>