<svg xmlns="http://www.w3.org/2000/svg" viewBox="0 0 512 308.88"><defs><style>.cls-1{fill:#444545;}</style></defs><title>nextjs</title><g id="Layer_2" data-name="Layer 2"><g id="Layer_1-2" data-name="Layer 1"><path class="cls-1" d="M120.81,80.56h96.57v7.68H129.66V146h82.49v7.68H129.66V217.1h88.72v7.68H120.81Zm105.22,0h10.26L281.76,144l46.47-63.42L391.44,0,287.59,150.65l53.52,74.13H330.44l-48.68-67.47-48.89,67.47H222.41l53.91-74.13Zm118.9,7.68V80.56H455v7.68h-50.7V224.78h-8.85V88.24ZM0,80.56H11.07L163.65,308.88l-63.06-84.1L9.25,91.47l-.4,133.31H0ZM454.08,214.79a3.22,3.22,0,1,1,3.17-3.22A3.14,3.14,0,0,1,454.08,214.79Zm8.7-8.46h4.74c.06,2.57,1.94,4.29,4.69,4.29,3.08,0,4.82-1.85,4.82-5.32v-22h4.83v22c0,6.25-3.62,9.85-9.6,9.85C466.64,215.17,462.78,211.68,462.78,206.33Zm25.39-.28H493c.4,3,3.29,4.83,7.45,4.83,3.87,0,6.71-2,6.71-4.76,0-2.37-1.81-3.8-5.92-4.77l-4-1c-5.62-1.31-8.18-4-8.18-8.6,0-5.54,4.52-9.22,11.3-9.22,6.31,0,10.91,3.68,11.19,8.92h-4.69c-.45-2.87-2.95-4.66-6.57-4.66-3.81,0-6.35,1.84-6.35,4.64,0,2.22,1.64,3.49,5.69,4.44l3.42.84c6.37,1.49,9,4.08,9,8.75,0,5.95-4.61,9.68-12,9.68C493.14,215.17,488.51,211.62,488.17,206.05Z"/></g></g></svg>