<svg xmlns="http://www.w3.org/2000/svg" viewBox="0 0 256 288.46"><defs><style>.cls-1{fill:#444545;}</style></defs><title>nodejs</title><g id="Layer_2" data-name="Layer 2"><g id="Layer_1-2" data-name="Layer 1"><path class="cls-1" d="M128,288.46a23.26,23.26,0,0,1-11.13-2.91L81.62,264.61c-5.3-2.91-2.65-4-1.06-4.5,7.16-2.39,8.48-2.92,15.9-7.16a2.44,2.44,0,0,1,2.65.27l27,16.16a3.39,3.39,0,0,0,3.19,0l105.73-61.21a3,3,0,0,0,1.59-2.92V83.08a3,3,0,0,0-1.59-2.91l-105.73-61a3.39,3.39,0,0,0-3.19,0l-105.73,61a3.32,3.32,0,0,0-1.59,2.91V205.25a3.33,3.33,0,0,0,1.59,2.92l28.88,16.69c15.64,7.95,25.44-1.32,25.44-10.6V93.68a3.23,3.23,0,0,1,3.18-3.18H91.43a3.23,3.23,0,0,1,3.18,3.18V214.26c0,20.94-11.4,33.13-31.27,33.13-6.1,0-10.87,0-24.38-6.63l-27.83-15.9A22.35,22.35,0,0,1,0,205.52V83.35A22.38,22.38,0,0,1,11.13,64L116.87,2.78a23.65,23.65,0,0,1,22.26,0L244.87,64A22.38,22.38,0,0,1,256,83.35V205.52a22.35,22.35,0,0,1-11.13,19.34L139.13,286.08A27.1,27.1,0,0,1,128,288.46Zm32.6-84c-46.38,0-55.92-21.21-55.92-39.23a3.22,3.22,0,0,1,3.18-3.18h13.78a2.72,2.72,0,0,1,2.91,2.65c2.12,14.05,8.22,20.94,36.31,20.94,22.26,0,31.8-5,31.8-17,0-6.89-2.65-11.93-37.36-15.37-28.89-2.92-46.91-9.28-46.91-32.33,0-21.47,18-34.19,48.23-34.19,33.92,0,50.62,11.66,52.74,37.1a4.3,4.3,0,0,1-.8,2.39,3.26,3.26,0,0,1-2.12,1.06H192.66a3.1,3.1,0,0,1-2.91-2.39c-3.18-14.57-11.4-19.34-33.13-19.34-24.38,0-27.29,8.48-27.29,14.84,0,7.68,3.44,10.07,36.3,14.31,32.6,4.24,48,10.33,48,33.12-.27,23.32-19.35,36.58-53,36.58Z"/></g></g></svg>