<svg xmlns="http://www.w3.org/2000/svg" viewBox="0 0 225.96 201.04"><defs><style>.cls-1{fill:#444545;}.cls-2{fill:#fff;}</style></defs><title>react</title><g id="Layer_2" data-name="Layer 2"><g id="Layer_1-2" data-name="Layer 1"><path class="cls-1" d="M185.78,65.16c-2.34-.81-4.77-1.57-7.27-2.29.41-1.68.79-3.34,1.12-5,5.51-26.73,1.91-48.26-10.39-55.35-11.78-6.8-31.06.29-50.53,17.23-1.87,1.63-3.75,3.36-5.63,5.16-1.25-1.19-2.5-2.35-3.74-3.45C88.93,3.38,68.48-4.26,56.2,2.85,44.42,9.67,40.94,29.91,45.89,55.24q.72,3.67,1.67,7.49c-2.89.82-5.69,1.7-8.36,2.63C15.28,73.7,0,86.77,0,100.33c0,14,16.4,28.05,41.32,36.56,2,.68,4,1.31,6.11,1.91q-1,4.13-1.78,8.07c-4.72,24.89-1,44.65,10.71,51.43,12.13,7,32.49-.2,52.32-17.53q2.35-2.06,4.71-4.34c2,2,4.09,3.83,6.11,5.57,19.21,16.53,38.17,23.2,49.91,16.41,12.12-7,16.06-28.25,10.94-54.08-.39-2-.84-4-1.35-6,1.43-.42,2.83-.86,4.2-1.31,25.9-8.59,42.76-22.46,42.76-36.65,0-13.61-15.77-26.77-40.18-35.17Z"/><path class="cls-2" d="M180.16,127.81c-1.23.41-2.5.81-3.79,1.19a226.66,226.66,0,0,0-11.44-28.62,227.8,227.8,0,0,0,11-28.21c2.31.67,4.56,1.37,6.72,2.12,20.91,7.2,33.66,17.84,33.66,26,0,8.73-13.77,20.07-36.14,27.48Zm-9.28,18.39C173.14,157.62,173.47,168,172,176c-1.35,7.26-4.05,12.1-7.4,14-7.12,4.12-22.35-1.23-38.77-15.37-1.88-1.62-3.78-3.35-5.68-5.18a227.33,227.33,0,0,0,18.94-24.05,226.07,226.07,0,0,0,30.6-4.71q.69,2.79,1.22,5.46ZM77,189.34c-7,2.46-12.49,2.53-15.84.6-7.13-4.12-10.09-20-6-41.27q.69-3.66,1.65-7.5a226.69,226.69,0,0,0,30.45,4.41,236.41,236.41,0,0,0,19.39,24c-1.44,1.39-2.87,2.72-4.3,4-8.77,7.66-17.55,13.1-25.3,15.83ZM44.44,127.76c-11-3.77-20.12-8.66-26.35-14-5.61-4.8-8.44-9.57-8.44-13.43,0-8.23,12.27-18.72,32.73-25.86,2.48-.86,5.08-1.68,7.78-2.44a229.66,229.66,0,0,0,11,28.53A233.26,233.26,0,0,0,50,129.51q-2.9-.84-5.58-1.75ZM55.37,53.39C51.12,31.69,53.94,15.32,61,11.21c7.56-4.38,24.27,1.86,41.89,17.5,1.13,1,2.26,2.05,3.39,3.13A231.68,231.68,0,0,0,87.07,55.66a236.38,236.38,0,0,0-30.15,4.69c-.59-2.36-1.11-4.69-1.55-7Zm97.46,24.07q-3.35-5.8-6.87-11.3c7.21.91,14.12,2.12,20.61,3.6a206.31,206.31,0,0,1-7.24,19.45q-3.08-5.83-6.5-11.75ZM113.09,38.74a207.33,207.33,0,0,1,13.29,16q-6.63-.3-13.4-.31t-13.3.31c4.39-5.79,8.88-11.17,13.41-16Zm-40,38.78q-3.35,5.82-6.37,11.69C63.9,82.54,61.49,76,59.53,69.66,66,68.21,72.85,67,80,66.14q-3.56,5.55-6.93,11.38Zm7.14,57.69a207.86,207.86,0,0,1-20.83-3.35c2-6.44,4.46-13.14,7.33-20q3,5.86,6.4,11.69h0q3.43,5.94,7.1,11.61Zm33.13,27.38c-4.57-4.93-9.14-10.39-13.59-16.27,4.32.17,8.74.26,13.22.26s9.16-.1,13.64-.3a201.8,201.8,0,0,1-13.27,16.31Zm46.08-51A205.27,205.27,0,0,1,167,131.44,205,205,0,0,1,145.94,135q3.51-5.57,6.93-11.49t6.56-12Zm-14.92,7.15c-3.53,6.13-7.16,12-10.84,17.49-6.7.48-13.63.73-20.69.73s-13.87-.22-20.46-.65c-3.83-5.59-7.53-11.45-11-17.51h0c-3.5-6-6.73-12.15-9.64-18.21,2.91-6.08,6.13-12.18,9.61-18.22h0c3.49-6.06,7.16-11.89,11-17.45,6.72-.5,13.61-.77,20.58-.77h0c7,0,13.89.27,20.61.78,3.74,5.52,7.39,11.33,10.89,17.38s6.8,12.19,9.74,18.13c-2.94,6-6.18,12.18-9.71,18.29ZM164.42,10.92c7.57,4.36,10.51,22,5.76,45-.31,1.47-.65,3-1,4.49A231.56,231.56,0,0,0,139,55.68a227,227,0,0,0-19.1-23.84q2.61-2.5,5.2-4.77c16.68-14.51,32.27-20.25,39.37-16.15Z"/><path class="cls-1" d="M113,80.15A20.18,20.18,0,1,1,92.8,100.33,20.18,20.18,0,0,1,113,80.15"/></g></g></svg>