<svg xmlns="http://www.w3.org/2000/svg" viewBox="0 0 256 243.03"><defs><style>.cls-1{fill:#444545;}</style></defs><title>redux</title><g id="Layer_2" data-name="Layer 2"><g id="Layer_1-2" data-name="Layer 1"><path class="cls-1" d="M177.38,169.73a18.29,18.29,0,0,0-1.95-36.48h-.66a18.23,18.23,0,0,0-17.59,18.89,18.67,18.67,0,0,0,5.22,12.05C151.32,186,134.38,202,109,215.34c-17.27,9.12-35.18,12.38-53.1,10.1-14.66-1.95-26.06-8.47-33.23-19.22-10.42-16-11.4-33.23-2.61-50.5a76.67,76.67,0,0,1,22.16-26.06c-1.31-4.23-3.26-11.4-4.24-16.61-47.24,34.2-42.35,80.46-28,102.29,10.76,16.29,32.58,26.39,56.69,26.39a80.12,80.12,0,0,0,19.55-2.28C127.86,231.31,159.46,206.55,177.38,169.73Zm57.34-40.39c-24.76-29-61.25-45-102.95-45h-5.21a17.89,17.89,0,0,0-16-9.78H110a18.25,18.25,0,0,0,.65,36.49h.65a18.32,18.32,0,0,0,16-11.07h5.87a124.18,124.18,0,0,1,69.39,21.17c16.28,10.75,28,24.76,34.53,41.7,5.54,13.68,5.21,27-.65,38.44-9.13,17.27-24.44,26.72-44.64,26.72a83.31,83.31,0,0,1-31.92-6.84c-3.58,3.25-10.1,8.47-14.66,11.72,14,6.52,28.34,10.1,42,10.1,31.28,0,54.41-17.26,63.2-34.53C259.8,189.61,259.15,157,234.72,129.34ZM69.23,175.27a18.3,18.3,0,0,0,18.24,17.59h.65a18.25,18.25,0,0,0-.65-36.48h-.65a5.63,5.63,0,0,0-2.28.32c-13.36-22.15-18.9-46.26-16.94-72.32,1.3-19.55,7.81-36.49,19.22-50.5C96.26,21.83,114.51,16,126.89,15.64,161.42,15,176.08,58,177.06,75.26c4.23,1,11.4,3.25,16.28,4.88C189.43,27.37,156.86,0,125.58,0,96.26,0,69.23,21.18,58.47,52.45c-15,41.7-5.21,81.77,13,113.37A14.61,14.61,0,0,0,69.23,175.27Z"/></g></g></svg>